<mxfile modified="2025-03-18T03:56:42.537Z" host="Electron" agent="Mozilla/5.0 (Windows NT 10.0; Win64; x64) AppleWebKit/537.36 (KHTML, like Gecko) draw.io/22.0.3 Chrome/114.0.5735.289 Electron/25.8.4 Safari/537.36" etag="B_rTL7_gApKbSE9ylv9I" version="22.0.3" type="device" pages="2">
  <diagram id="Ht1M8jgEwFfnCIfOTk4-" name="api-transferencia-v1">
    <mxGraphModel dx="2607" dy="2362" grid="1" gridSize="10" guides="1" tooltips="1" connect="1" arrows="1" fold="1" page="1" pageScale="1" pageWidth="1169" pageHeight="827" math="0" shadow="0">
      <root>
        <mxCell id="0" />
        <mxCell id="1" parent="0" />
        <mxCell id="OGRuqpIQwR_JSS_qK5GA-32" value="" style="rounded=1;whiteSpace=wrap;html=1;fillColor=#fff2cc;strokeColor=#d6b656;opacity=70;" parent="1" vertex="1">
          <mxGeometry x="585" y="500" width="1150" height="340" as="geometry" />
        </mxCell>
        <mxCell id="OGRuqpIQwR_JSS_qK5GA-27" value="" style="rounded=1;whiteSpace=wrap;html=1;fillColor=#dae8fc;strokeColor=#6c8ebf;gradientColor=none;opacity=60;" parent="1" vertex="1">
          <mxGeometry x="310" y="-50" width="1230" height="530" as="geometry" />
        </mxCell>
        <mxCell id="OGRuqpIQwR_JSS_qK5GA-14" style="edgeStyle=orthogonalEdgeStyle;rounded=0;orthogonalLoop=1;jettySize=auto;html=1;" parent="1" source="UEzPUAAOIrF-is8g5C7q-109" edge="1">
          <mxGeometry relative="1" as="geometry">
            <mxPoint x="400" y="350" as="targetPoint" />
          </mxGeometry>
        </mxCell>
        <mxCell id="UEzPUAAOIrF-is8g5C7q-109" value="internet banking" style="outlineConnect=0;gradientColor=none;fontColor=#545B64;strokeColor=none;fillColor=#879196;dashed=0;verticalLabelPosition=bottom;verticalAlign=top;align=center;html=1;fontSize=12;fontStyle=0;aspect=fixed;shape=mxgraph.aws4.illustration_desktop;pointerEvents=1;labelBackgroundColor=#ffffff;" parent="1" vertex="1">
          <mxGeometry x="30" y="400" width="100" height="91" as="geometry" />
        </mxCell>
        <mxCell id="OGRuqpIQwR_JSS_qK5GA-13" style="edgeStyle=orthogonalEdgeStyle;rounded=0;orthogonalLoop=1;jettySize=auto;html=1;" parent="1" source="UEzPUAAOIrF-is8g5C7q-110" target="OGRuqpIQwR_JSS_qK5GA-7" edge="1">
          <mxGeometry relative="1" as="geometry" />
        </mxCell>
        <mxCell id="UEzPUAAOIrF-is8g5C7q-110" value="mobile" style="outlineConnect=0;gradientColor=none;fontColor=#545B64;strokeColor=none;fillColor=#879196;dashed=0;verticalLabelPosition=bottom;verticalAlign=top;align=center;html=1;fontSize=12;fontStyle=0;aspect=fixed;shape=mxgraph.aws4.illustration_notification;pointerEvents=1;labelBackgroundColor=#ffffff;" parent="1" vertex="1">
          <mxGeometry x="20" y="120.5" width="100" height="81" as="geometry" />
        </mxCell>
        <mxCell id="OGRuqpIQwR_JSS_qK5GA-21" style="edgeStyle=orthogonalEdgeStyle;rounded=0;orthogonalLoop=1;jettySize=auto;html=1;" parent="1" source="UEzPUAAOIrF-is8g5C7q-113" target="OGRuqpIQwR_JSS_qK5GA-3" edge="1">
          <mxGeometry relative="1" as="geometry" />
        </mxCell>
        <mxCell id="OGRuqpIQwR_JSS_qK5GA-22" style="edgeStyle=orthogonalEdgeStyle;rounded=0;orthogonalLoop=1;jettySize=auto;html=1;" parent="1" source="UEzPUAAOIrF-is8g5C7q-113" target="OGRuqpIQwR_JSS_qK5GA-6" edge="1">
          <mxGeometry relative="1" as="geometry" />
        </mxCell>
        <mxCell id="OGRuqpIQwR_JSS_qK5GA-26" style="edgeStyle=orthogonalEdgeStyle;rounded=0;orthogonalLoop=1;jettySize=auto;html=1;flowAnimation=1;fillColor=#60a917;strokeColor=#2D7600;" parent="1" source="UEzPUAAOIrF-is8g5C7q-113" target="OGRuqpIQwR_JSS_qK5GA-25" edge="1">
          <mxGeometry relative="1" as="geometry" />
        </mxCell>
        <mxCell id="UEzPUAAOIrF-is8g5C7q-113" value="Lambda" style="outlineConnect=0;fontColor=#232F3E;gradientColor=#F78E04;gradientDirection=north;fillColor=#D05C17;strokeColor=#ffffff;dashed=0;verticalLabelPosition=bottom;verticalAlign=top;align=center;html=1;fontSize=12;fontStyle=0;aspect=fixed;shape=mxgraph.aws4.resourceIcon;resIcon=mxgraph.aws4.lambda;labelBackgroundColor=#ffffff;spacingTop=3;" parent="1" vertex="1">
          <mxGeometry x="1300" y="550" width="78" height="78" as="geometry" />
        </mxCell>
        <mxCell id="OGRuqpIQwR_JSS_qK5GA-16" style="edgeStyle=orthogonalEdgeStyle;rounded=0;orthogonalLoop=1;jettySize=auto;html=1;" parent="1" source="UEzPUAAOIrF-is8g5C7q-114" target="OGRuqpIQwR_JSS_qK5GA-1" edge="1">
          <mxGeometry relative="1" as="geometry" />
        </mxCell>
        <mxCell id="UEzPUAAOIrF-is8g5C7q-114" value="api transferência" style="outlineConnect=0;fontColor=#232F3E;gradientColor=#945DF2;gradientDirection=north;fillColor=#5A30B5;strokeColor=#ffffff;dashed=0;verticalLabelPosition=bottom;verticalAlign=top;align=center;html=1;fontSize=12;fontStyle=0;aspect=fixed;shape=mxgraph.aws4.resourceIcon;resIcon=mxgraph.aws4.api_gateway;labelBackgroundColor=#ffffff;" parent="1" vertex="1">
          <mxGeometry x="640" y="225.5" width="78" height="78" as="geometry" />
        </mxCell>
        <mxCell id="OGRuqpIQwR_JSS_qK5GA-17" style="edgeStyle=orthogonalEdgeStyle;rounded=0;orthogonalLoop=1;jettySize=auto;html=1;" parent="1" source="OGRuqpIQwR_JSS_qK5GA-1" target="OGRuqpIQwR_JSS_qK5GA-2" edge="1">
          <mxGeometry relative="1" as="geometry" />
        </mxCell>
        <mxCell id="OGRuqpIQwR_JSS_qK5GA-1" value="" style="sketch=0;outlineConnect=0;fontColor=#232F3E;gradientColor=none;fillColor=#8C4FFF;strokeColor=none;dashed=0;verticalLabelPosition=bottom;verticalAlign=top;align=center;html=1;fontSize=12;fontStyle=0;aspect=fixed;pointerEvents=1;shape=mxgraph.aws4.network_load_balancer;" parent="1" vertex="1">
          <mxGeometry x="840" y="225.5" width="78" height="78" as="geometry" />
        </mxCell>
        <mxCell id="OGRuqpIQwR_JSS_qK5GA-29" style="edgeStyle=orthogonalEdgeStyle;rounded=0;orthogonalLoop=1;jettySize=auto;html=1;" parent="1" source="OGRuqpIQwR_JSS_qK5GA-2" target="OGRuqpIQwR_JSS_qK5GA-4" edge="1">
          <mxGeometry relative="1" as="geometry">
            <Array as="points">
              <mxPoint x="1076" y="70" />
            </Array>
          </mxGeometry>
        </mxCell>
        <mxCell id="OGRuqpIQwR_JSS_qK5GA-30" style="edgeStyle=orthogonalEdgeStyle;rounded=0;orthogonalLoop=1;jettySize=auto;html=1;" parent="1" source="OGRuqpIQwR_JSS_qK5GA-2" target="OGRuqpIQwR_JSS_qK5GA-5" edge="1">
          <mxGeometry relative="1" as="geometry">
            <Array as="points">
              <mxPoint x="1076" y="380" />
            </Array>
          </mxGeometry>
        </mxCell>
        <mxCell id="OGRuqpIQwR_JSS_qK5GA-31" style="edgeStyle=orthogonalEdgeStyle;rounded=0;orthogonalLoop=1;jettySize=auto;html=1;shadow=0;flowAnimation=1;fillColor=#60a917;strokeColor=#2D7600;" parent="1" source="OGRuqpIQwR_JSS_qK5GA-2" target="OGRuqpIQwR_JSS_qK5GA-23" edge="1">
          <mxGeometry relative="1" as="geometry">
            <Array as="points">
              <mxPoint x="1060" y="69" />
            </Array>
          </mxGeometry>
        </mxCell>
        <mxCell id="OGRuqpIQwR_JSS_qK5GA-2" value="" style="outlineConnect=0;dashed=0;verticalLabelPosition=bottom;verticalAlign=top;align=center;html=1;shape=mxgraph.aws3.ecs;fillColor=#F58534;gradientColor=none;" parent="1" vertex="1">
          <mxGeometry x="1040" y="230.75" width="72" height="67.5" as="geometry" />
        </mxCell>
        <mxCell id="OGRuqpIQwR_JSS_qK5GA-3" value="" style="sketch=0;points=[[0,0,0],[0.25,0,0],[0.5,0,0],[0.75,0,0],[1,0,0],[0,1,0],[0.25,1,0],[0.5,1,0],[0.75,1,0],[1,1,0],[0,0.25,0],[0,0.5,0],[0,0.75,0],[1,0.25,0],[1,0.5,0],[1,0.75,0]];outlineConnect=0;fontColor=#232F3E;fillColor=#E7157B;strokeColor=#ffffff;dashed=0;verticalLabelPosition=bottom;verticalAlign=top;align=center;html=1;fontSize=12;fontStyle=0;aspect=fixed;shape=mxgraph.aws4.resourceIcon;resIcon=mxgraph.aws4.sqs;" parent="1" vertex="1">
          <mxGeometry x="1037" y="550" width="78" height="78" as="geometry" />
        </mxCell>
        <mxCell id="OGRuqpIQwR_JSS_qK5GA-4" value="api cadastro" style="outlineConnect=0;fontColor=#232F3E;gradientColor=#945DF2;gradientDirection=north;fillColor=#5A30B5;strokeColor=#ffffff;dashed=0;verticalLabelPosition=bottom;verticalAlign=top;align=center;html=1;fontSize=12;fontStyle=0;aspect=fixed;shape=mxgraph.aws4.resourceIcon;resIcon=mxgraph.aws4.api_gateway;labelBackgroundColor=#ffffff;" parent="1" vertex="1">
          <mxGeometry x="1340" y="123.5" width="78" height="78" as="geometry" />
        </mxCell>
        <mxCell id="OGRuqpIQwR_JSS_qK5GA-5" value="api contas" style="outlineConnect=0;fontColor=#232F3E;gradientColor=#945DF2;gradientDirection=north;fillColor=#5A30B5;strokeColor=#ffffff;dashed=0;verticalLabelPosition=bottom;verticalAlign=top;align=center;html=1;fontSize=12;fontStyle=0;aspect=fixed;shape=mxgraph.aws4.resourceIcon;resIcon=mxgraph.aws4.api_gateway;labelBackgroundColor=#ffffff;" parent="1" vertex="1">
          <mxGeometry x="1340" y="311" width="78" height="78" as="geometry" />
        </mxCell>
        <mxCell id="OGRuqpIQwR_JSS_qK5GA-6" value="api notificação" style="sketch=0;html=1;dashed=0;whitespace=wrap;fillColor=#2875E2;strokeColor=#ffffff;points=[[0.005,0.63,0],[0.1,0.2,0],[0.9,0.2,0],[0.5,0,0],[0.995,0.63,0],[0.72,0.99,0],[0.5,1,0],[0.28,0.99,0]];verticalLabelPosition=bottom;align=center;verticalAlign=top;shape=mxgraph.kubernetes.icon;prIcon=api" parent="1" vertex="1">
          <mxGeometry x="1610" y="550" width="90" height="80" as="geometry" />
        </mxCell>
        <mxCell id="OGRuqpIQwR_JSS_qK5GA-15" style="edgeStyle=orthogonalEdgeStyle;rounded=0;orthogonalLoop=1;jettySize=auto;html=1;" parent="1" source="OGRuqpIQwR_JSS_qK5GA-7" target="UEzPUAAOIrF-is8g5C7q-114" edge="1">
          <mxGeometry relative="1" as="geometry" />
        </mxCell>
        <mxCell id="OGRuqpIQwR_JSS_qK5GA-7" value="" style="outlineConnect=0;dashed=0;verticalLabelPosition=bottom;verticalAlign=top;align=center;html=1;shape=mxgraph.aws3.cloudfront;fillColor=#F58536;gradientColor=none;" parent="1" vertex="1">
          <mxGeometry x="360" y="218" width="76.5" height="93" as="geometry" />
        </mxCell>
        <mxCell id="OGRuqpIQwR_JSS_qK5GA-20" style="edgeStyle=orthogonalEdgeStyle;rounded=0;orthogonalLoop=1;jettySize=auto;html=1;entryX=0.5;entryY=0;entryDx=0;entryDy=0;entryPerimeter=0;flowAnimation=1;fillColor=#60a917;strokeColor=#2D7600;" parent="1" source="OGRuqpIQwR_JSS_qK5GA-2" target="OGRuqpIQwR_JSS_qK5GA-3" edge="1">
          <mxGeometry relative="1" as="geometry">
            <Array as="points">
              <mxPoint x="1060" y="530" />
              <mxPoint x="1076" y="530" />
            </Array>
          </mxGeometry>
        </mxCell>
        <mxCell id="OGRuqpIQwR_JSS_qK5GA-23" value="" style="sketch=0;points=[[0,0,0],[0.25,0,0],[0.5,0,0],[0.75,0,0],[1,0,0],[0,1,0],[0.25,1,0],[0.5,1,0],[0.75,1,0],[1,1,0],[0,0.25,0],[0,0.5,0],[0,0.75,0],[1,0.25,0],[1,0.5,0],[1,0.75,0]];points=[[0,0,0],[0.25,0,0],[0.5,0,0],[0.75,0,0],[1,0,0],[0,1,0],[0.25,1,0],[0.5,1,0],[0.75,1,0],[1,1,0],[0,0.25,0],[0,0.5,0],[0,0.75,0],[1,0.25,0],[1,0.5,0],[1,0.75,0]];outlineConnect=0;fontColor=#232F3E;fillColor=#E7157B;strokeColor=#ffffff;dashed=0;verticalLabelPosition=bottom;verticalAlign=top;align=center;html=1;fontSize=12;fontStyle=0;aspect=fixed;shape=mxgraph.aws4.resourceIcon;resIcon=mxgraph.aws4.cloudwatch_2;" parent="1" vertex="1">
          <mxGeometry x="880" y="30" width="78" height="78" as="geometry" />
        </mxCell>
        <mxCell id="OGRuqpIQwR_JSS_qK5GA-25" value="" style="sketch=0;points=[[0,0,0],[0.25,0,0],[0.5,0,0],[0.75,0,0],[1,0,0],[0,1,0],[0.25,1,0],[0.5,1,0],[0.75,1,0],[1,1,0],[0,0.25,0],[0,0.5,0],[0,0.75,0],[1,0.25,0],[1,0.5,0],[1,0.75,0]];points=[[0,0,0],[0.25,0,0],[0.5,0,0],[0.75,0,0],[1,0,0],[0,1,0],[0.25,1,0],[0.5,1,0],[0.75,1,0],[1,1,0],[0,0.25,0],[0,0.5,0],[0,0.75,0],[1,0.25,0],[1,0.5,0],[1,0.75,0]];outlineConnect=0;fontColor=#232F3E;fillColor=#E7157B;strokeColor=#ffffff;dashed=0;verticalLabelPosition=bottom;verticalAlign=top;align=center;html=1;fontSize=12;fontStyle=0;aspect=fixed;shape=mxgraph.aws4.resourceIcon;resIcon=mxgraph.aws4.cloudwatch_2;" parent="1" vertex="1">
          <mxGeometry x="1350" y="740" width="78" height="78" as="geometry" />
        </mxCell>
        <mxCell id="OGRuqpIQwR_JSS_qK5GA-28" value="&lt;h1&gt;Transferência&lt;/h1&gt;" style="text;html=1;strokeColor=none;fillColor=none;spacing=5;spacingTop=-20;whiteSpace=wrap;overflow=hidden;rounded=0;" parent="1" vertex="1">
          <mxGeometry x="350" y="-20" width="190" height="45" as="geometry" />
        </mxCell>
        <mxCell id="OGRuqpIQwR_JSS_qK5GA-34" value="&lt;h1&gt;Notificação Bacen&lt;/h1&gt;" style="text;html=1;strokeColor=none;fillColor=none;spacing=5;spacingTop=-20;whiteSpace=wrap;overflow=hidden;rounded=0;" parent="1" vertex="1">
          <mxGeometry x="640" y="530" width="270" height="80" as="geometry" />
        </mxCell>
        <mxCell id="OGRuqpIQwR_JSS_qK5GA-35" value="&lt;h1 style=&quot;font-size: 20px;&quot;&gt;&lt;font style=&quot;font-size: 20px;&quot;&gt;Estratégias de escalonamento adotadas&lt;/font&gt;&lt;/h1&gt;&lt;div style=&quot;font-size: 20px;&quot;&gt;&lt;font style=&quot;font-size: 20px;&quot;&gt;&lt;br&gt;&lt;/font&gt;&lt;/div&gt;&lt;div style=&quot;font-size: 16px;&quot;&gt;&lt;ul style=&quot;&quot;&gt;&lt;li style=&quot;&quot;&gt;&lt;font style=&quot;font-size: 16px;&quot;&gt;Aumento de número de tasks com base no consumo de CPU e Memória.&lt;/font&gt;&lt;/li&gt;&lt;li style=&quot;&quot;&gt;&lt;font style=&quot;font-size: 16px;&quot;&gt;Aumento de número de tasks com base em alarmes disparados no CloudWatch&lt;/font&gt;&lt;/li&gt;&lt;/ul&gt;&lt;/div&gt;" style="text;html=1;strokeColor=#d79b00;fillColor=#ffe6cc;spacing=5;spacingTop=-20;whiteSpace=wrap;overflow=hidden;rounded=0;" parent="1" vertex="1">
          <mxGeometry x="340" y="-280" width="640" height="190" as="geometry" />
        </mxCell>
      </root>
    </mxGraphModel>
  </diagram>
  <diagram id="GHaul4Rbu6-ECf8rl4B0" name="api-transferencia-v2">
    <mxGraphModel dx="2607" dy="2704" grid="1" gridSize="10" guides="1" tooltips="1" connect="1" arrows="1" fold="1" page="1" pageScale="1" pageWidth="827" pageHeight="1169" math="0" shadow="0">
      <root>
        <mxCell id="0" />
        <mxCell id="1" parent="0" />
        <mxCell id="m8s_K9qaowY4OCLqTG9W-1" value="" style="rounded=1;whiteSpace=wrap;html=1;fillColor=#fff2cc;strokeColor=#d6b656;opacity=70;" vertex="1" parent="1">
          <mxGeometry x="585" y="500" width="1535" height="540" as="geometry" />
        </mxCell>
        <mxCell id="m8s_K9qaowY4OCLqTG9W-2" value="" style="rounded=1;whiteSpace=wrap;html=1;fillColor=#dae8fc;strokeColor=#6c8ebf;gradientColor=none;opacity=60;" vertex="1" parent="1">
          <mxGeometry x="310" y="-100" width="1230" height="580" as="geometry" />
        </mxCell>
        <mxCell id="m8s_K9qaowY4OCLqTG9W-3" style="edgeStyle=orthogonalEdgeStyle;rounded=0;orthogonalLoop=1;jettySize=auto;html=1;" edge="1" parent="1" source="m8s_K9qaowY4OCLqTG9W-4">
          <mxGeometry relative="1" as="geometry">
            <mxPoint x="400" y="350" as="targetPoint" />
          </mxGeometry>
        </mxCell>
        <mxCell id="m8s_K9qaowY4OCLqTG9W-4" value="internet banking" style="outlineConnect=0;gradientColor=none;fontColor=#545B64;strokeColor=none;fillColor=#879196;dashed=0;verticalLabelPosition=bottom;verticalAlign=top;align=center;html=1;fontSize=12;fontStyle=0;aspect=fixed;shape=mxgraph.aws4.illustration_desktop;pointerEvents=1;labelBackgroundColor=#ffffff;" vertex="1" parent="1">
          <mxGeometry x="30" y="400" width="100" height="91" as="geometry" />
        </mxCell>
        <mxCell id="m8s_K9qaowY4OCLqTG9W-5" style="edgeStyle=orthogonalEdgeStyle;rounded=0;orthogonalLoop=1;jettySize=auto;html=1;" edge="1" parent="1" source="m8s_K9qaowY4OCLqTG9W-6" target="m8s_K9qaowY4OCLqTG9W-26">
          <mxGeometry relative="1" as="geometry" />
        </mxCell>
        <mxCell id="m8s_K9qaowY4OCLqTG9W-6" value="mobile" style="outlineConnect=0;gradientColor=none;fontColor=#545B64;strokeColor=none;fillColor=#879196;dashed=0;verticalLabelPosition=bottom;verticalAlign=top;align=center;html=1;fontSize=12;fontStyle=0;aspect=fixed;shape=mxgraph.aws4.illustration_notification;pointerEvents=1;labelBackgroundColor=#ffffff;" vertex="1" parent="1">
          <mxGeometry x="20" y="120.5" width="100" height="81" as="geometry" />
        </mxCell>
        <mxCell id="m8s_K9qaowY4OCLqTG9W-7" style="edgeStyle=orthogonalEdgeStyle;rounded=0;orthogonalLoop=1;jettySize=auto;html=1;" edge="1" parent="1" source="m8s_K9qaowY4OCLqTG9W-11" target="m8s_K9qaowY4OCLqTG9W-21">
          <mxGeometry relative="1" as="geometry" />
        </mxCell>
        <mxCell id="m8s_K9qaowY4OCLqTG9W-8" style="edgeStyle=orthogonalEdgeStyle;rounded=0;orthogonalLoop=1;jettySize=auto;html=1;" edge="1" parent="1" source="m8s_K9qaowY4OCLqTG9W-11" target="m8s_K9qaowY4OCLqTG9W-24">
          <mxGeometry relative="1" as="geometry" />
        </mxCell>
        <mxCell id="m8s_K9qaowY4OCLqTG9W-9" style="edgeStyle=orthogonalEdgeStyle;rounded=0;orthogonalLoop=1;jettySize=auto;html=1;flowAnimation=1;fillColor=#60a917;strokeColor=#2D7600;" edge="1" parent="1" source="m8s_K9qaowY4OCLqTG9W-11" target="m8s_K9qaowY4OCLqTG9W-29">
          <mxGeometry relative="1" as="geometry" />
        </mxCell>
        <mxCell id="m8s_K9qaowY4OCLqTG9W-10" style="edgeStyle=orthogonalEdgeStyle;rounded=0;orthogonalLoop=1;jettySize=auto;html=1;fillColor=#f8cecc;strokeColor=#b85450;" edge="1" parent="1" source="m8s_K9qaowY4OCLqTG9W-11" target="m8s_K9qaowY4OCLqTG9W-34">
          <mxGeometry relative="1" as="geometry">
            <Array as="points">
              <mxPoint x="1339" y="660" />
              <mxPoint x="1656" y="660" />
            </Array>
          </mxGeometry>
        </mxCell>
        <mxCell id="m8s_K9qaowY4OCLqTG9W-11" value="Lambda" style="outlineConnect=0;fontColor=#232F3E;gradientColor=#F78E04;gradientDirection=north;fillColor=#D05C17;strokeColor=#ffffff;dashed=0;verticalLabelPosition=bottom;verticalAlign=top;align=center;html=1;fontSize=12;fontStyle=0;aspect=fixed;shape=mxgraph.aws4.resourceIcon;resIcon=mxgraph.aws4.lambda;labelBackgroundColor=#ffffff;spacingTop=3;" vertex="1" parent="1">
          <mxGeometry x="1300" y="550" width="78" height="78" as="geometry" />
        </mxCell>
        <mxCell id="m8s_K9qaowY4OCLqTG9W-12" style="edgeStyle=orthogonalEdgeStyle;rounded=0;orthogonalLoop=1;jettySize=auto;html=1;" edge="1" parent="1" source="m8s_K9qaowY4OCLqTG9W-13" target="m8s_K9qaowY4OCLqTG9W-15">
          <mxGeometry relative="1" as="geometry" />
        </mxCell>
        <mxCell id="m8s_K9qaowY4OCLqTG9W-13" value="api transferência" style="outlineConnect=0;fontColor=#232F3E;gradientColor=#945DF2;gradientDirection=north;fillColor=#5A30B5;strokeColor=#ffffff;dashed=0;verticalLabelPosition=bottom;verticalAlign=top;align=center;html=1;fontSize=12;fontStyle=0;aspect=fixed;shape=mxgraph.aws4.resourceIcon;resIcon=mxgraph.aws4.api_gateway;labelBackgroundColor=#ffffff;" vertex="1" parent="1">
          <mxGeometry x="640" y="225.5" width="78" height="78" as="geometry" />
        </mxCell>
        <mxCell id="m8s_K9qaowY4OCLqTG9W-14" style="edgeStyle=orthogonalEdgeStyle;rounded=0;orthogonalLoop=1;jettySize=auto;html=1;" edge="1" parent="1" source="m8s_K9qaowY4OCLqTG9W-15" target="m8s_K9qaowY4OCLqTG9W-20">
          <mxGeometry relative="1" as="geometry" />
        </mxCell>
        <mxCell id="m8s_K9qaowY4OCLqTG9W-15" value="" style="sketch=0;outlineConnect=0;fontColor=#232F3E;gradientColor=none;fillColor=#8C4FFF;strokeColor=none;dashed=0;verticalLabelPosition=bottom;verticalAlign=top;align=center;html=1;fontSize=12;fontStyle=0;aspect=fixed;pointerEvents=1;shape=mxgraph.aws4.network_load_balancer;" vertex="1" parent="1">
          <mxGeometry x="840" y="225.5" width="78" height="78" as="geometry" />
        </mxCell>
        <mxCell id="m8s_K9qaowY4OCLqTG9W-16" style="edgeStyle=orthogonalEdgeStyle;rounded=0;orthogonalLoop=1;jettySize=auto;html=1;" edge="1" parent="1" source="m8s_K9qaowY4OCLqTG9W-20" target="m8s_K9qaowY4OCLqTG9W-22">
          <mxGeometry relative="1" as="geometry">
            <Array as="points">
              <mxPoint x="1076" y="70" />
            </Array>
          </mxGeometry>
        </mxCell>
        <mxCell id="m8s_K9qaowY4OCLqTG9W-17" style="edgeStyle=orthogonalEdgeStyle;rounded=0;orthogonalLoop=1;jettySize=auto;html=1;" edge="1" parent="1" source="m8s_K9qaowY4OCLqTG9W-20" target="m8s_K9qaowY4OCLqTG9W-23">
          <mxGeometry relative="1" as="geometry">
            <Array as="points">
              <mxPoint x="1076" y="380" />
            </Array>
          </mxGeometry>
        </mxCell>
        <mxCell id="m8s_K9qaowY4OCLqTG9W-18" style="edgeStyle=orthogonalEdgeStyle;rounded=0;orthogonalLoop=1;jettySize=auto;html=1;shadow=0;flowAnimation=1;fillColor=#60a917;strokeColor=#2D7600;" edge="1" parent="1" source="m8s_K9qaowY4OCLqTG9W-20" target="m8s_K9qaowY4OCLqTG9W-28">
          <mxGeometry relative="1" as="geometry">
            <Array as="points">
              <mxPoint x="1060" y="69" />
            </Array>
          </mxGeometry>
        </mxCell>
        <mxCell id="m8s_K9qaowY4OCLqTG9W-19" style="edgeStyle=orthogonalEdgeStyle;rounded=0;orthogonalLoop=1;jettySize=auto;html=1;" edge="1" parent="1" source="m8s_K9qaowY4OCLqTG9W-20">
          <mxGeometry relative="1" as="geometry">
            <mxPoint x="1340" y="-30" as="targetPoint" />
            <Array as="points">
              <mxPoint x="1076" y="-30" />
            </Array>
          </mxGeometry>
        </mxCell>
        <mxCell id="m8s_K9qaowY4OCLqTG9W-20" value="" style="outlineConnect=0;dashed=0;verticalLabelPosition=bottom;verticalAlign=top;align=center;html=1;shape=mxgraph.aws3.ecs;fillColor=#F58534;gradientColor=none;" vertex="1" parent="1">
          <mxGeometry x="1040" y="230.75" width="72" height="67.5" as="geometry" />
        </mxCell>
        <mxCell id="m8s_K9qaowY4OCLqTG9W-21" value="" style="sketch=0;points=[[0,0,0],[0.25,0,0],[0.5,0,0],[0.75,0,0],[1,0,0],[0,1,0],[0.25,1,0],[0.5,1,0],[0.75,1,0],[1,1,0],[0,0.25,0],[0,0.5,0],[0,0.75,0],[1,0.25,0],[1,0.5,0],[1,0.75,0]];outlineConnect=0;fontColor=#232F3E;fillColor=#E7157B;strokeColor=#ffffff;dashed=0;verticalLabelPosition=bottom;verticalAlign=top;align=center;html=1;fontSize=12;fontStyle=0;aspect=fixed;shape=mxgraph.aws4.resourceIcon;resIcon=mxgraph.aws4.sqs;" vertex="1" parent="1">
          <mxGeometry x="1037" y="550" width="78" height="78" as="geometry" />
        </mxCell>
        <mxCell id="m8s_K9qaowY4OCLqTG9W-22" value="api cadastro" style="outlineConnect=0;fontColor=#232F3E;gradientColor=#945DF2;gradientDirection=north;fillColor=#5A30B5;strokeColor=#ffffff;dashed=0;verticalLabelPosition=bottom;verticalAlign=top;align=center;html=1;fontSize=12;fontStyle=0;aspect=fixed;shape=mxgraph.aws4.resourceIcon;resIcon=mxgraph.aws4.api_gateway;labelBackgroundColor=#ffffff;" vertex="1" parent="1">
          <mxGeometry x="1340" y="123.5" width="78" height="78" as="geometry" />
        </mxCell>
        <mxCell id="m8s_K9qaowY4OCLqTG9W-23" value="api contas" style="outlineConnect=0;fontColor=#232F3E;gradientColor=#945DF2;gradientDirection=north;fillColor=#5A30B5;strokeColor=#ffffff;dashed=0;verticalLabelPosition=bottom;verticalAlign=top;align=center;html=1;fontSize=12;fontStyle=0;aspect=fixed;shape=mxgraph.aws4.resourceIcon;resIcon=mxgraph.aws4.api_gateway;labelBackgroundColor=#ffffff;" vertex="1" parent="1">
          <mxGeometry x="1340" y="311" width="78" height="78" as="geometry" />
        </mxCell>
        <mxCell id="m8s_K9qaowY4OCLqTG9W-24" value="api notificação" style="sketch=0;html=1;dashed=0;whitespace=wrap;fillColor=#2875E2;strokeColor=#ffffff;points=[[0.005,0.63,0],[0.1,0.2,0],[0.9,0.2,0],[0.5,0,0],[0.995,0.63,0],[0.72,0.99,0],[0.5,1,0],[0.28,0.99,0]];verticalLabelPosition=bottom;align=center;verticalAlign=top;shape=mxgraph.kubernetes.icon;prIcon=api" vertex="1" parent="1">
          <mxGeometry x="1610" y="550" width="90" height="80" as="geometry" />
        </mxCell>
        <mxCell id="m8s_K9qaowY4OCLqTG9W-25" style="edgeStyle=orthogonalEdgeStyle;rounded=0;orthogonalLoop=1;jettySize=auto;html=1;" edge="1" parent="1" source="m8s_K9qaowY4OCLqTG9W-26" target="m8s_K9qaowY4OCLqTG9W-13">
          <mxGeometry relative="1" as="geometry" />
        </mxCell>
        <mxCell id="m8s_K9qaowY4OCLqTG9W-26" value="" style="outlineConnect=0;dashed=0;verticalLabelPosition=bottom;verticalAlign=top;align=center;html=1;shape=mxgraph.aws3.cloudfront;fillColor=#F58536;gradientColor=none;" vertex="1" parent="1">
          <mxGeometry x="360" y="218" width="76.5" height="93" as="geometry" />
        </mxCell>
        <mxCell id="m8s_K9qaowY4OCLqTG9W-27" style="edgeStyle=orthogonalEdgeStyle;rounded=0;orthogonalLoop=1;jettySize=auto;html=1;entryX=0.5;entryY=0;entryDx=0;entryDy=0;entryPerimeter=0;flowAnimation=1;fillColor=#60a917;strokeColor=#2D7600;" edge="1" parent="1" source="m8s_K9qaowY4OCLqTG9W-20" target="m8s_K9qaowY4OCLqTG9W-21">
          <mxGeometry relative="1" as="geometry">
            <Array as="points">
              <mxPoint x="1060" y="530" />
              <mxPoint x="1076" y="530" />
            </Array>
          </mxGeometry>
        </mxCell>
        <mxCell id="m8s_K9qaowY4OCLqTG9W-28" value="" style="sketch=0;points=[[0,0,0],[0.25,0,0],[0.5,0,0],[0.75,0,0],[1,0,0],[0,1,0],[0.25,1,0],[0.5,1,0],[0.75,1,0],[1,1,0],[0,0.25,0],[0,0.5,0],[0,0.75,0],[1,0.25,0],[1,0.5,0],[1,0.75,0]];points=[[0,0,0],[0.25,0,0],[0.5,0,0],[0.75,0,0],[1,0,0],[0,1,0],[0.25,1,0],[0.5,1,0],[0.75,1,0],[1,1,0],[0,0.25,0],[0,0.5,0],[0,0.75,0],[1,0.25,0],[1,0.5,0],[1,0.75,0]];outlineConnect=0;fontColor=#232F3E;fillColor=#E7157B;strokeColor=#ffffff;dashed=0;verticalLabelPosition=bottom;verticalAlign=top;align=center;html=1;fontSize=12;fontStyle=0;aspect=fixed;shape=mxgraph.aws4.resourceIcon;resIcon=mxgraph.aws4.cloudwatch_2;" vertex="1" parent="1">
          <mxGeometry x="880" y="30" width="78" height="78" as="geometry" />
        </mxCell>
        <mxCell id="m8s_K9qaowY4OCLqTG9W-29" value="" style="sketch=0;points=[[0,0,0],[0.25,0,0],[0.5,0,0],[0.75,0,0],[1,0,0],[0,1,0],[0.25,1,0],[0.5,1,0],[0.75,1,0],[1,1,0],[0,0.25,0],[0,0.5,0],[0,0.75,0],[1,0.25,0],[1,0.5,0],[1,0.75,0]];points=[[0,0,0],[0.25,0,0],[0.5,0,0],[0.75,0,0],[1,0,0],[0,1,0],[0.25,1,0],[0.5,1,0],[0.75,1,0],[1,1,0],[0,0.25,0],[0,0.5,0],[0,0.75,0],[1,0.25,0],[1,0.5,0],[1,0.75,0]];outlineConnect=0;fontColor=#232F3E;fillColor=#E7157B;strokeColor=#ffffff;dashed=0;verticalLabelPosition=bottom;verticalAlign=top;align=center;html=1;fontSize=12;fontStyle=0;aspect=fixed;shape=mxgraph.aws4.resourceIcon;resIcon=mxgraph.aws4.cloudwatch_2;" vertex="1" parent="1">
          <mxGeometry x="1350" y="740" width="78" height="78" as="geometry" />
        </mxCell>
        <mxCell id="m8s_K9qaowY4OCLqTG9W-30" value="&lt;h1&gt;Transferência&lt;/h1&gt;" style="text;html=1;strokeColor=none;fillColor=none;spacing=5;spacingTop=-20;whiteSpace=wrap;overflow=hidden;rounded=0;" vertex="1" parent="1">
          <mxGeometry x="360" y="-70" width="190" height="45" as="geometry" />
        </mxCell>
        <mxCell id="m8s_K9qaowY4OCLqTG9W-31" value="&lt;h1&gt;Notificação Bacen&lt;/h1&gt;" style="text;html=1;strokeColor=none;fillColor=none;spacing=5;spacingTop=-20;whiteSpace=wrap;overflow=hidden;rounded=0;" vertex="1" parent="1">
          <mxGeometry x="640" y="530" width="270" height="80" as="geometry" />
        </mxCell>
        <mxCell id="m8s_K9qaowY4OCLqTG9W-32" value="&lt;h1 style=&quot;font-size: 20px;&quot;&gt;&lt;font style=&quot;font-size: 20px;&quot;&gt;Estratégias de escalonamento adotadas&lt;/font&gt;&lt;/h1&gt;&lt;div style=&quot;font-size: 20px;&quot;&gt;&lt;font style=&quot;font-size: 20px;&quot;&gt;&lt;br&gt;&lt;/font&gt;&lt;/div&gt;&lt;div style=&quot;font-size: 16px;&quot;&gt;&lt;ul style=&quot;&quot;&gt;&lt;li style=&quot;&quot;&gt;&lt;font style=&quot;font-size: 16px;&quot;&gt;Aumento de número de tasks com base no consumo de CPU e Memória.&lt;/font&gt;&lt;/li&gt;&lt;li style=&quot;&quot;&gt;&lt;font style=&quot;font-size: 16px;&quot;&gt;Aumento de número de tasks com base em alarmes disparados no CloudWatch&lt;/font&gt;&lt;/li&gt;&lt;/ul&gt;&lt;/div&gt;" style="text;html=1;strokeColor=#d79b00;fillColor=#ffe6cc;spacing=5;spacingTop=-20;whiteSpace=wrap;overflow=hidden;rounded=0;" vertex="1" parent="1">
          <mxGeometry x="330" y="-360" width="640" height="190" as="geometry" />
        </mxCell>
        <mxCell id="m8s_K9qaowY4OCLqTG9W-33" value="" style="sketch=0;points=[[0,0,0],[0.25,0,0],[0.5,0,0],[0.75,0,0],[1,0,0],[0,1,0],[0.25,1,0],[0.5,1,0],[0.75,1,0],[1,1,0],[0,0.25,0],[0,0.5,0],[0,0.75,0],[1,0.25,0],[1,0.5,0],[1,0.75,0]];outlineConnect=0;fontColor=#232F3E;fillColor=#C925D1;strokeColor=#ffffff;dashed=0;verticalLabelPosition=bottom;verticalAlign=top;align=center;html=1;fontSize=12;fontStyle=0;aspect=fixed;shape=mxgraph.aws4.resourceIcon;resIcon=mxgraph.aws4.rds;" vertex="1" parent="1">
          <mxGeometry x="1340" y="-70" width="78" height="78" as="geometry" />
        </mxCell>
        <mxCell id="m8s_K9qaowY4OCLqTG9W-34" value="" style="outlineConnect=0;dashed=0;verticalLabelPosition=bottom;verticalAlign=top;align=center;html=1;shape=mxgraph.aws3.elasticache;fillColor=#2E73B8;gradientColor=none;" vertex="1" parent="1">
          <mxGeometry x="1622" y="710" width="67.5" height="81" as="geometry" />
        </mxCell>
        <mxCell id="m8s_K9qaowY4OCLqTG9W-39" style="edgeStyle=orthogonalEdgeStyle;rounded=0;orthogonalLoop=1;jettySize=auto;html=1;entryX=0.5;entryY=1;entryDx=0;entryDy=0;entryPerimeter=0;flowAnimation=1;" edge="1" parent="1" source="m8s_K9qaowY4OCLqTG9W-35" target="m8s_K9qaowY4OCLqTG9W-21">
          <mxGeometry relative="1" as="geometry">
            <mxPoint x="1076" y="650" as="targetPoint" />
            <Array as="points">
              <mxPoint x="1959" y="990" />
              <mxPoint x="1076" y="990" />
            </Array>
          </mxGeometry>
        </mxCell>
        <mxCell id="m8s_K9qaowY4OCLqTG9W-35" value="Lambda" style="outlineConnect=0;fontColor=#232F3E;gradientColor=#F78E04;gradientDirection=north;fillColor=#D05C17;strokeColor=#ffffff;dashed=0;verticalLabelPosition=bottom;verticalAlign=top;align=center;html=1;fontSize=12;fontStyle=0;aspect=fixed;shape=mxgraph.aws4.resourceIcon;resIcon=mxgraph.aws4.lambda;labelBackgroundColor=#ffffff;spacingTop=3;" vertex="1" parent="1">
          <mxGeometry x="1920" y="552" width="78" height="78" as="geometry" />
        </mxCell>
        <mxCell id="m8s_K9qaowY4OCLqTG9W-42" style="edgeStyle=orthogonalEdgeStyle;rounded=0;orthogonalLoop=1;jettySize=auto;html=1;" edge="1" parent="1" source="m8s_K9qaowY4OCLqTG9W-35">
          <mxGeometry relative="1" as="geometry">
            <mxPoint x="1690" y="751" as="targetPoint" />
            <Array as="points">
              <mxPoint x="1805" y="591" />
              <mxPoint x="1805" y="751" />
              <mxPoint x="1690" y="751" />
            </Array>
          </mxGeometry>
        </mxCell>
        <mxCell id="m8s_K9qaowY4OCLqTG9W-43" value="&lt;h1&gt;Reprocessamento dos dados&amp;nbsp;&lt;/h1&gt;&lt;p&gt;&lt;font style=&quot;font-size: 20px;&quot;&gt;Quando o status 429 acontecer, os dados serão reprocessados.&lt;/font&gt;&lt;/p&gt;&lt;p&gt;&lt;span style=&quot;font-size: 20px;&quot;&gt;A lambda enviará os dados da requisição para um Elasticache e então vejo duas opções:&lt;/span&gt;&lt;/p&gt;&lt;p&gt;&lt;span style=&quot;font-size: 20px;&quot;&gt;&lt;br&gt;&lt;/span&gt;&lt;/p&gt;&lt;p&gt;&lt;/p&gt;&lt;ul&gt;&lt;li&gt;&lt;span style=&quot;font-size: 20px;&quot;&gt;Implementar exponencial backoffice.&lt;/span&gt;&lt;/li&gt;&lt;li&gt;&lt;span style=&quot;font-size: 20px;&quot;&gt;Salvar o TTL do registro no cache de acordo com o header Retry-After&lt;/span&gt;&lt;/li&gt;&lt;/ul&gt;&lt;p&gt;&lt;/p&gt;" style="text;html=1;strokeColor=#d6b656;fillColor=#fff2cc;spacing=5;spacingTop=-20;whiteSpace=wrap;overflow=hidden;rounded=0;opacity=40;" vertex="1" parent="1">
          <mxGeometry x="1880" y="-50" width="572" height="370" as="geometry" />
        </mxCell>
        <mxCell id="m8s_K9qaowY4OCLqTG9W-44" style="edgeStyle=orthogonalEdgeStyle;rounded=0;orthogonalLoop=1;jettySize=auto;html=1;entryX=0.776;entryY=1.009;entryDx=0;entryDy=0;entryPerimeter=0;exitX=0.635;exitY=0.006;exitDx=0;exitDy=0;exitPerimeter=0;" edge="1" parent="1" source="m8s_K9qaowY4OCLqTG9W-1" target="m8s_K9qaowY4OCLqTG9W-43">
          <mxGeometry relative="1" as="geometry" />
        </mxCell>
      </root>
    </mxGraphModel>
  </diagram>
</mxfile>
